<?xml version="1.0" encoding="utf-8"?>
<!-- Generator: Adobe Illustrator 19.0.0, SVG Export Plug-In . SVG Version: 6.00 Build 0)  -->
<svg version="1.1" id="图层_1" xmlns="http://www.w3.org/2000/svg" xmlns:xlink="http://www.w3.org/1999/xlink" x="0px" y="0px"
	 viewBox="0 0 128 70" style="enable-background:new 0 0 128 70;" xml:space="preserve">
<style type="text/css">
	.st0{fill:#EA094B;}
	.st1{fill:#404041;}
</style>
<g id="XMLID_1_">
	<path id="XMLID_151_" class="st0" d="M24.4,15.3L24.4,15.3c-8,0-14.5-6.5-14.5-14.5c0-0.1,0-0.2,0-0.3l0,0L0.1,3.1
		C0,3.9,0,4.6,0,5.4c0,15.9,10.2,29.4,24.4,34.3v12.2h15.3V39.7h6.1v12.2h15.2V15.3H24.4z"/>
	<rect id="XMLID_150_" x="121.9" y="45.8" class="st0" width="6.1" height="6.1"/>
	<path id="XMLID_148_" class="st1" d="M128,37.1v1.3h-5.6v-9.5h5.6v1.3h-4.3v2.9h3.4v1.3h-3.4v2.8H128z"/>
	<g id="XMLID_118_">
		<g id="XMLID_143_">
			<path id="XMLID_145_" class="st1" d="M35.3,60v-1.1h-1.7l0.4-0.6l-0.9-0.6l-0.8,1.2h-5l-0.8-1.2l-0.9,0.6l0.4,0.6h-1.7V60h3v2H26
				v-1.3H25V62h-0.6V63h11V62h-1.2v-1.3h-1.1V62h-1.2v-2H35.3z M30.8,62h-2.4v-2h2.4V62z"/>
			<path id="XMLID_144_" class="st1" d="M25.3,67.1h6.2V66h-5.1V65h6.8v1.7C32.6,67,31,68,28.8,68.5l0.2,1c2.9-0.7,4.8-2.1,4.9-2.2
				l0.2-0.2v-3.3h-8.9V67.1z"/>
		</g>
		<path id="XMLID_139_" class="st1" d="M104.6,59v-1h-1.2v1h-4.9v6.7h4.9v2h1.2v-2h4.9V59H104.6z M103.4,64.7h-3.7v-4.5h3.7V64.7z
			 M108.3,64.7h-3.7v-4.5h3.7V64.7z"/>
		<path id="XMLID_134_" class="st1" d="M124.3,65.1c-0.9-1.2-1.1-5.5-1.1-7h-1.1c0,0.6,0,6,1.3,7.7L124.3,65.1z M116.7,67.4l0.9,0.5
			c1.2-2,1.2-8,1.2-8.2l-1.1,0C117.8,61.3,117.6,65.9,116.7,67.4z M126.9,59.7l-1.1,0c0,0.3,0.1,6.2,1.2,8.2l0.9-0.5
			C127.2,65.9,126.9,61.3,126.9,59.7z M120.7,58.8h-1.1v8.9h5.9v-1.1h-4.8V58.8z"/>
		<path id="XMLID_128_" class="st1" d="M69.3,65.7h1.1v-5.6h-1.1V65.7z M71.1,58v9.6h1.1V58H71.1z M67.2,65.7v-4.1
			c0.3,0.7,0.5,1.3,0.8,1.6l0.8-0.7c-0.5-0.5-1-2.6-1.2-3.9l-0.1-0.4h-5.3l-0.1,0.4C62,59.9,61.5,62,61,62.5l0.7,0.7
			c0.2-0.3,0.5-0.7,0.6-1.2v5.6h6.3v-1.1h-5.3v-4.2h2.7v3.3H67.2z M62.7,61.3c0.2-0.8,0.4-1.6,0.5-2.1h3.5c0.1,0.5,0.3,1.3,0.5,2.1
			H62.7z"/>
		<path id="XMLID_127_" class="st1" d="M48.5,58h-1v1h-4.9v1.2h1.7c0,1.3-0.1,5-1.8,6.7l0.7,0.7c1.3-1.3,1.8-3.3,2-5.1h6v5.2h1.1
			v-6.4h-0.2v0h-6.8c0-0.5,0-0.8,0-1.2h8.3V59h-5.2V58z"/>
		<path id="XMLID_119_" class="st1" d="M90.9,60.9h-1.1v-0.8h1.1v-1.1h-5.1V58h-1.1v1.1H80v1.1h1.2v0.8H80v1.1h11V60.9z M88.8,60.9
			h-6.6v-0.8h6.6V60.9z M86.5,67.6h2.7v-1.1H88L86.5,67.6z M79.4,67.3l0.7,0.7c0.8-0.8,1-2.2,1-2.3l-1-0.1
			C80.1,65.9,79.9,66.8,79.4,67.3z M90.5,65.5l-1,0.1c0,0.2,0.2,1.5,1,2.3l0.7-0.7C90.8,66.8,90.6,65.9,90.5,65.5z M81.3,65.2h5
			v-1.1h-3.9v-0.6h5.9v1c-0.6,0.5-2.7,2.1-4.5,2.1h-0.3l0,0c0,0-0.4,0-0.6-0.2c-0.1-0.1-0.2-0.4-0.2-0.5h-1.1c0,0.6,0.3,1.1,0.5,1.3
			c0.5,0.5,1.2,0.5,1.4,0.5c0,0,0,0,0,0h0.5v0c2.4-0.1,5.1-2.4,5.2-2.5l0.2-0.2v-2.5h-8V65.2z"/>
	</g>
	<path id="XMLID_115_" class="st1" d="M70.4,22.2h-2.1v2.7h-1.3v-9.4h3.4c1.9,0,3.3,1.5,3.3,3.3c0,1.2-0.6,2.2-1.5,2.8
		C71.6,22,70.9,22.2,70.4,22.2z M68.4,20.9h2.1c1.1,0,2-0.9,2-2.1c0-1.1-0.9-2-2-2h-2.1V20.9z"/>
	<path id="XMLID_113_" class="st1" d="M82.5,15.5V20v1.6c0,1.8-1.6,3.3-3.6,3.3c-1.3,0-2.3-0.6-3-1.5c0,0-0.6-0.8-0.6-1.8v-0.8v-5.4
		h1.4V20v1.5c0,1.1,1,2.1,2.2,2.1c1.2,0,2.2-0.9,2.2-2.1v-6.1H82.5z"/>
	<path id="XMLID_111_" class="st1" d="M85.8,16.8v3h3.4v1.2h-3.4v4h-1.3v-9.5H90v1.3H85.8z"/>
	<path id="XMLID_109_" class="st1" d="M107.9,15.5v9.5h-1.5l-4.1-7.1v7.1H101v-9.5h1.5l4.2,7.3v-7.3H107.9z"/>
	<path id="XMLID_107_" class="st1" d="M118.3,19.7v5.3H117v-0.5c-0.6,0.3-1.3,0.5-2,0.5c-2.6,0-4.8-2.1-4.8-4.8
		c0-2.6,2.1-4.7,4.8-4.7c1,0,1.9,0.2,2.6,0.9l-0.5,1.2c-0.6-0.5-1.3-0.7-2.1-0.7c-1.9,0-3.4,1.6-3.4,3.4c0,1.9,1.5,3.5,3.4,3.5
		c0.7,0,1.6-0.4,2-0.8v-1.9h-1.6v-1.2H118.3z"/>
	<path id="XMLID_105_" class="st1" d="M74.4,37.5c-0.8,0.5-1.7,0.9-2.7,0.9c-2.6,0-4.7-2.1-4.7-4.7c0-2.6,2.1-4.7,4.7-4.7
		c1,0,2,0.3,2.7,0.9L73.8,31c-0.6-0.5-1.3-0.7-2.1-0.7c-1.9,0-3.4,1.5-3.4,3.4c0,1.9,1.5,3.4,3.4,3.4c0.8,0,1.6-0.3,2.2-0.8
		L74.4,37.5z"/>
	<path id="XMLID_103_" class="st1" d="M90.1,37.1v1.3h-5.6v-9.5h5.6v1.3h-4.3v2.9h3.4v1.3h-3.4v2.8H90.1z"/>
	<path id="XMLID_101_" class="st1" d="M106.8,28.9v1.3l-3.2,0l0,8.2h-1.3l0-8.2h-3.1v-1.2H106.8z"/>
	<path id="XMLID_99_" class="st1" d="M110.1,38.4h-1.3v-9.5h1.3V38.4z"/>
	<path id="XMLID_97_" class="st1" d="M116.4,35l2.7-6h1.5l-4.2,9.5l-4.1-9.5h1.5L116.4,35z"/>
	<path id="XMLID_95_" class="st1" d="M74.4,51c-0.8,0.5-1.7,0.9-2.7,0.9c-2.6,0-4.7-2.1-4.7-4.7c0-2.6,2.1-4.7,4.7-4.7
		c1,0,2,0.3,2.7,0.9l-0.6,1.2c-0.6-0.5-1.3-0.7-2.1-0.7c-1.9,0-3.4,1.5-3.4,3.4c0,1.9,1.5,3.4,3.4,3.4c0.8,0,1.6-0.3,2.2-0.8
		L74.4,51z"/>
	<path id="XMLID_93_" class="st1" d="M82.3,50.6v1.3h-5.6v-9.5h5.6v1.3h-4.3v2.9h3.4v1.3h-3.4v2.8H82.3z"/>
	<path id="XMLID_91_" class="st1" d="M91.4,42.4v9.5h-1.5l-4.1-7.1v7.1h-1.3v-9.5H86l4.2,7.3v-7.3H91.4z"/>
	<path id="XMLID_89_" class="st1" d="M101.2,42.4v1.3l-3.2,0l0,8.2h-1.3l0-8.2h-3.1v-1.2H101.2z"/>
	<path id="XMLID_87_" class="st1" d="M109.1,50.6v1.3h-5.6v-9.5h5.6v1.3h-4.3v2.9h3.4v1.3h-3.4v2.8H109.1z"/>
	<path id="XMLID_84_" class="st1" d="M118.3,51.8l-1.5,0l0,0l-1.6-3.1c-0.1,0-0.2,0-0.4,0l0,0h-2.2v3.1h-1.3l0-9.5h2.9h0.6
		c1.7,0.1,3.1,1.5,3.1,3.2c0,1.1-0.5,2.1-1.4,2.6L118.3,51.8z M116.7,45.6c0-1-0.9-1.9-1.9-1.9h-2.2v3.8h2.2
		C115.8,47.5,116.7,46.6,116.7,45.6z"/>
	<path id="XMLID_81_" class="st1" d="M83.1,38.4l-1.5,0l0,0l-1.6-3.1c-0.1,0-0.2,0-0.4,0l0,0h-2.2v3.1h-1.3l0-9.5h2.9h0.6
		c1.7,0.1,3.1,1.5,3.1,3.2c0,1.1-0.5,2.1-1.4,2.6L83.1,38.4z M81.5,32.1c0-1-0.9-1.9-1.9-1.9h-2.2V34h2.2
		C80.6,34,81.5,33.2,81.5,32.1z"/>
	<polygon id="XMLID_80_" class="st1" points="92.1,38.4 94.8,32.4 97.4,38.4 98.9,38.4 94.8,28.9 90.7,38.4 	"/>
	<polygon id="XMLID_79_" class="st1" points="92.1,24.9 94.8,18.9 97.4,24.9 98.9,24.9 94.8,15.4 90.7,24.9 	"/>
</g>
</svg>
